<mxfile host="app.diagrams.net" modified="2023-05-30T06:12:33.708Z" agent="Mozilla/5.0 (Windows NT 10.0; Win64; x64) AppleWebKit/537.36 (KHTML, like Gecko) Chrome/109.0.0.0 Safari/537.36" etag="WAPauJ71nkuGTWObpMfW" version="21.3.4" type="google">
  <diagram name="Page-1" id="NgpR6SR11DvnPQmct2AE">
    <mxGraphModel grid="1" page="1" gridSize="10" guides="1" tooltips="1" connect="1" arrows="1" fold="1" pageScale="1" pageWidth="1169" pageHeight="827" math="0" shadow="0">
      <root>
        <mxCell id="0" />
        <mxCell id="1" parent="0" />
        <mxCell id="Idyd6BOjWSUBKEpNi-j_-1" value="&lt;font style=&quot;font-size: 24px;&quot; face=&quot;Times New Roman&quot;&gt;&lt;b style=&quot;&quot;&gt;AMC Website&lt;/b&gt;&lt;/font&gt;" style="ellipse;whiteSpace=wrap;html=1;aspect=fixed;" vertex="1" parent="1">
          <mxGeometry x="480" y="294" width="240" height="240" as="geometry" />
        </mxCell>
        <mxCell id="Idyd6BOjWSUBKEpNi-j_-3" value="" style="whiteSpace=wrap;html=1;aspect=fixed;" vertex="1" parent="1">
          <mxGeometry x="40" y="303" width="221" height="221" as="geometry" />
        </mxCell>
        <mxCell id="Idyd6BOjWSUBKEpNi-j_-4" value="" style="whiteSpace=wrap;html=1;aspect=fixed;" vertex="1" parent="1">
          <mxGeometry x="910" y="303" width="221" height="221" as="geometry" />
        </mxCell>
        <mxCell id="Idyd6BOjWSUBKEpNi-j_-6" value="" style="endArrow=classic;html=1;rounded=0;exitX=0;exitY=0.5;exitDx=0;exitDy=0;entryX=1;entryY=0.5;entryDx=0;entryDy=0;" edge="1" parent="1" source="Idyd6BOjWSUBKEpNi-j_-4" target="Idyd6BOjWSUBKEpNi-j_-1">
          <mxGeometry width="50" height="50" relative="1" as="geometry">
            <mxPoint x="520" y="390" as="sourcePoint" />
            <mxPoint x="470" y="440" as="targetPoint" />
            <Array as="points">
              <mxPoint x="800" y="414" />
            </Array>
          </mxGeometry>
        </mxCell>
        <mxCell id="Idyd6BOjWSUBKEpNi-j_-8" value="" style="endArrow=classic;html=1;rounded=0;exitX=0.061;exitY=0.267;exitDx=0;exitDy=0;exitPerimeter=0;entryX=1;entryY=0.25;entryDx=0;entryDy=0;" edge="1" parent="1" source="Idyd6BOjWSUBKEpNi-j_-1" target="Idyd6BOjWSUBKEpNi-j_-3">
          <mxGeometry width="50" height="50" relative="1" as="geometry">
            <mxPoint x="480" y="358" as="sourcePoint" />
            <mxPoint x="260" y="358" as="targetPoint" />
          </mxGeometry>
        </mxCell>
        <mxCell id="Idyd6BOjWSUBKEpNi-j_-9" value="" style="endArrow=classic;html=1;rounded=0;exitX=1;exitY=0.75;exitDx=0;exitDy=0;entryX=0.056;entryY=0.732;entryDx=0;entryDy=0;entryPerimeter=0;" edge="1" parent="1" source="Idyd6BOjWSUBKEpNi-j_-3" target="Idyd6BOjWSUBKEpNi-j_-1">
          <mxGeometry width="50" height="50" relative="1" as="geometry">
            <mxPoint x="263" y="468" as="sourcePoint" />
            <mxPoint x="470" y="470" as="targetPoint" />
            <Array as="points">
              <mxPoint x="360" y="469" />
            </Array>
          </mxGeometry>
        </mxCell>
        <mxCell id="Idyd6BOjWSUBKEpNi-j_-10" value="&lt;b&gt;&lt;font style=&quot;font-size: 24px;&quot; face=&quot;Times New Roman&quot;&gt;USER&lt;/font&gt;&lt;/b&gt;" style="text;html=1;strokeColor=none;fillColor=none;align=center;verticalAlign=middle;whiteSpace=wrap;rounded=0;" vertex="1" parent="1">
          <mxGeometry x="120.5" y="399" width="60" height="30" as="geometry" />
        </mxCell>
        <mxCell id="Idyd6BOjWSUBKEpNi-j_-12" value="&lt;font style=&quot;font-size: 24px;&quot; face=&quot;Times New Roman&quot;&gt;&lt;b style=&quot;&quot;&gt;AMC Server&lt;/b&gt;&lt;/font&gt;" style="text;html=1;strokeColor=none;fillColor=none;align=center;verticalAlign=middle;whiteSpace=wrap;rounded=0;" vertex="1" parent="1">
          <mxGeometry x="947.63" y="399" width="145.75" height="30" as="geometry" />
        </mxCell>
        <mxCell id="Idyd6BOjWSUBKEpNi-j_-13" value="&lt;h1&gt;&lt;span style=&quot;background-color: initial; font-weight: normal;&quot;&gt;&lt;font style=&quot;font-size: 18px;&quot; face=&quot;Times New Roman&quot;&gt;Request website&lt;/font&gt;&lt;/span&gt;&lt;br&gt;&lt;/h1&gt;" style="text;html=1;strokeColor=none;fillColor=none;spacing=5;spacingTop=-20;whiteSpace=wrap;overflow=hidden;rounded=0;" vertex="1" parent="1">
          <mxGeometry x="310" y="464" width="190" height="70" as="geometry" />
        </mxCell>
        <mxCell id="Idyd6BOjWSUBKEpNi-j_-14" value="&lt;h1&gt;&lt;span style=&quot;background-color: initial; font-weight: normal;&quot;&gt;&lt;font style=&quot;font-size: 18px;&quot; face=&quot;Times New Roman&quot;&gt;Webpage file&lt;/font&gt;&lt;/span&gt;&lt;br&gt;&lt;/h1&gt;" style="text;html=1;strokeColor=none;fillColor=none;spacing=5;spacingTop=-20;whiteSpace=wrap;overflow=hidden;rounded=0;" vertex="1" parent="1">
          <mxGeometry x="320" y="320" width="120" height="70" as="geometry" />
        </mxCell>
        <mxCell id="Idyd6BOjWSUBKEpNi-j_-15" value="&lt;h1&gt;&lt;span style=&quot;background-color: initial; font-weight: normal;&quot;&gt;&lt;font style=&quot;font-size: 18px;&quot; face=&quot;Times New Roman&quot;&gt;Website, images, documents, audio files, font files&lt;/font&gt;&lt;/span&gt;&lt;br&gt;&lt;/h1&gt;" style="text;html=1;strokeColor=none;fillColor=none;spacing=5;spacingTop=-20;whiteSpace=wrap;overflow=hidden;rounded=0;" vertex="1" parent="1">
          <mxGeometry x="730" y="414" width="180" height="91" as="geometry" />
        </mxCell>
      </root>
    </mxGraphModel>
  </diagram>
</mxfile>
